<?xml version="1.0" standalone="no"?>
<!DOCTYPE svg PUBLIC "-//W3C//DTD SVG 20010904//EN"
 "http://www.w3.org/TR/2001/REC-SVG-20010904/DTD/svg10.dtd">
<svg version="1.0" xmlns="http://www.w3.org/2000/svg"
 width="512.000000pt" height="512.000000pt" viewBox="0 0 512.000000 512.000000"
 preserveAspectRatio="xMidYMid meet">
<metadata>
Created by potrace 1.14, written by Peter Selinger 2001-2017
</metadata>
<g transform="translate(0.000000,512.000000) scale(0.100000,-0.100000)"
fill="#000000" stroke="none">
<path d="M0 2560 l0 -2560 2560 0 2560 0 0 2560 0 2560 -2560 0 -2560 0 0
-2560z m3393 2273 l107 -6 0 -1134 0 -1133 383 -1 c210 -1 392 -1 405 -2 l22
0 0 -1138 c0 -904 -3 -1139 -12 -1140 -7 0 -51 -2 -98 -2 l-85 -2 -5 1035 -5
1035 -722 3 c-575 2 -723 0 -723 -10 0 -7 0 -457 0 -1001 0 -543 -2 -1004 -6
-1025 l-6 -37 -101 5 -102 5 -3 1038 -2 1037 -725 0 -725 0 0 -1035 0 -1036
-102 3 -103 3 0 1135 0 1135 423 3 422 2 0 1130 0 1129 68 4 c127 6 1589 7
1695 0z"/>
<path d="M1847 4623 c-4 -3 -7 -467 -7 -1030 l0 -1023 238 0 c130 0 456 -3
725 -7 l487 -6 -2 1034 -3 1034 -716 3 c-393 1 -719 -1 -722 -5z"/>
</g>
</svg>
